<svg viewBox="0 0 417 50" fill="none" xmlns="http://www.w3.org/2000/svg">
<path d="M16.808 41.128C16.36 41.128 15.784 41.192 15.464 40.872C15.016 40.488 15.144 39.72 15.016 39.208V23.976H17.128C19.24 23.976 20.968 22.248 20.968 20.136C20.968 18.024 19.24 16.296 17.128 16.296H15.016V4.072C15.016 1.96 13.288 0.231998 11.176 0.231998C9.064 0.231998 7.336 1.96 7.336 4.072V16.296H4.584C2.472 16.296 0.744 18.024 0.744 20.136C0.744 22.248 2.472 23.976 4.584 23.976H7.336V40.104C7.336 42.088 8.232 44.392 9.512 45.864C10.984 47.528 13.032 48.424 15.144 48.744C15.72 48.808 16.232 48.808 16.808 48.808C18.92 48.808 20.648 47.144 20.648 44.968C20.648 42.856 18.92 41.128 16.808 41.128ZM51.2985 21.352C48.4185 18.664 44.7065 17.128 40.7385 17.128C37.7945 17.128 34.9785 18.024 32.6105 19.496C32.0985 17.96 30.6905 16.872 28.9625 16.872C26.8505 16.872 25.1225 18.536 25.1225 20.648V45.16C25.1225 47.272 26.8505 49 28.9625 49C31.0745 49 32.8025 47.272 32.8025 45.16V33.064C32.8025 28.52 36.3865 24.808 40.7385 24.808C42.7225 24.808 44.6425 25.576 46.0505 26.92C47.6505 28.392 50.0185 28.264 51.4905 26.728C52.9625 25.192 52.8345 22.76 51.2985 21.352ZM82.452 17C80.34 17 79.06 18.664 79.06 20.648V20.968C76.308 18.728 73.108 17.256 69.268 17.256C60.692 17.256 53.78 24.232 53.78 32.744C53.78 41.256 60.692 48.168 69.268 48.168C73.108 48.168 76.308 46.76 79.06 44.392V45.16C79.06 47.144 80.34 48.808 82.452 48.808C84.564 48.808 86.164 47.144 86.164 45.16V20.648C86.164 18.664 84.564 17 82.452 17ZM69.268 40.68C64.852 40.68 61.204 37.16 61.204 32.744C61.204 28.328 64.852 24.744 69.268 24.744C73.62 24.744 77.268 28.328 77.268 32.744C77.268 37.16 73.62 40.68 69.268 40.68ZM110.681 0.295998H96.089V0.679996C94.105 0.807999 92.505 2.472 92.505 4.456V45.096C92.505 47.208 94.169 48.872 96.281 48.872C98.393 48.872 100.057 47.208 100.057 45.096V29.032H110.169C118.105 29.032 124.761 22.568 124.761 15.016C124.761 7.016 118.297 0.295998 110.681 0.295998ZM110.169 21.416H100.057V7.912H110.681C114.073 7.912 117.145 11.304 117.145 15.016C117.145 18.408 113.881 21.416 110.169 21.416ZM153.511 49C140.135 49 129.255 38.056 129.255 24.68C129.255 11.304 140.135 0.423996 153.511 0.423996C159.527 0.423996 165.287 2.6 169.767 6.632C171.367 8.04 171.495 10.472 170.023 12.072C168.615 13.608 166.183 13.736 164.647 12.328C161.575 9.576 157.607 8.104 153.511 8.104C144.359 8.104 136.935 15.528 136.935 24.68C136.935 33.832 144.359 41.256 153.511 41.256C157.735 41.256 161.767 39.72 164.839 36.84C166.375 35.368 168.807 35.496 170.279 37.032C171.687 38.568 171.623 41 170.087 42.472C165.543 46.632 159.655 49 153.511 49ZM191.859 48.872C183.027 48.872 175.795 41.704 175.795 32.808C175.795 23.976 183.027 16.744 191.859 16.744C200.691 16.744 207.923 23.976 207.987 32.872C207.923 41.704 200.691 48.872 191.859 48.872ZM191.859 24.616C187.315 24.616 183.667 28.264 183.667 32.808C183.667 37.352 187.315 41 191.859 41C196.403 41 200.051 37.352 200.051 32.808C200.051 28.264 196.403 24.616 191.859 24.616ZM222.226 41.256C221.65 41.256 221.202 40.744 221.202 40.168C221.202 39.976 221.138 39.784 221.138 39.592C221.138 39.4 221.202 39.208 221.202 39.016V4.264C221.202 2.152 219.474 0.423996 217.298 0.423996C215.186 0.423996 213.458 2.152 213.458 4.264C213.458 8.872 213.458 13.48 213.458 18.088V37.224C213.458 40.232 213.33 43.048 215.25 45.544C216.914 47.656 219.538 49 222.226 49C224.402 49 226.13 47.272 226.13 45.096C226.13 42.984 224.402 41.256 222.226 41.256ZM240.038 41.256C239.462 41.256 239.014 40.744 239.014 40.168C239.014 39.976 238.95 39.784 238.95 39.592C238.95 39.4 239.014 39.208 239.014 39.016V4.264C239.014 2.152 237.286 0.423996 235.11 0.423996C232.998 0.423996 231.27 2.152 231.27 4.264C231.27 8.872 231.27 13.48 231.27 18.088V37.224C231.27 40.232 231.142 43.048 233.062 45.544C234.726 47.656 237.35 49 240.038 49C242.214 49 243.942 47.272 243.942 45.096C243.942 42.984 242.214 41.256 240.038 41.256ZM277.243 32.808C277.499 32.168 277.755 31.528 277.755 30.952C277.882 28.84 276.731 26.472 275.707 24.68C273.403 20.84 269.691 18.152 265.339 17.32C264.378 17.128 263.483 17.064 262.523 17.064C253.627 17.064 246.523 24.36 246.523 33.128C246.523 42.024 253.627 49.192 262.523 49.192C266.171 49.192 271.099 48.04 274.619 44.648C276.155 43.176 276.219 40.68 274.683 39.208C273.211 37.672 270.779 37.672 269.243 39.144C267.579 40.744 264.571 41.576 262.523 41.576C258.555 41.576 255.291 38.76 254.395 35.112H274.107C275.643 35.112 276.731 34.024 277.243 32.808ZM262.523 24.808C265.403 24.808 267.771 26.216 269.051 28.648H255.483C257.019 26.28 259.579 24.808 262.523 24.808ZM297.312 48.808C293.088 48.808 289.184 47.208 286.176 44.328C283.104 41.32 281.376 37.352 281.248 33.064C281.184 28.84 282.72 24.744 285.792 21.672C288.736 18.6 292.704 16.872 296.992 16.744C301.28 16.68 305.312 18.28 308.384 21.288C309.92 22.696 309.984 25.192 308.512 26.664C307.04 28.2 304.608 28.264 303.072 26.792C301.472 25.256 299.36 24.424 297.12 24.424C294.88 24.424 292.832 25.384 291.232 26.984C289.76 28.584 288.864 30.696 288.928 32.936C288.928 35.112 289.888 37.288 291.488 38.76C293.088 40.36 295.2 41.192 297.376 41.128C299.488 41.128 301.472 40.296 303.008 38.888C304.48 37.416 306.976 37.544 308.384 39.08C309.856 40.616 309.728 43.048 308.192 44.52C305.312 47.208 301.536 48.744 297.568 48.808H297.312ZM327.683 41.128C327.235 41.128 326.659 41.192 326.339 40.872C325.891 40.488 326.019 39.72 325.891 39.208V23.976H328.003C330.115 23.976 331.843 22.248 331.843 20.136C331.843 18.024 330.115 16.296 328.003 16.296H325.891V4.072C325.891 1.96 324.163 0.231998 322.051 0.231998C319.939 0.231998 318.211 1.96 318.211 4.072V16.296H315.459C313.347 16.296 311.619 18.024 311.619 20.136C311.619 22.248 313.347 23.976 315.459 23.976H318.211V40.104C318.211 42.088 319.107 44.392 320.387 45.864C321.859 47.528 323.907 48.424 326.019 48.744C326.595 48.808 327.107 48.808 327.683 48.808C329.795 48.808 331.523 47.144 331.523 44.968C331.523 42.856 329.795 41.128 327.683 41.128ZM340.67 11.432C338.43 11.432 336.638 9.64 336.638 7.528V7.208C336.638 4.968 338.43 3.24 340.67 3.24C342.782 3.24 344.574 4.968 344.574 7.208V7.528C344.574 9.64 342.782 11.432 340.67 11.432ZM340.67 49C338.43 49 336.638 47.208 336.638 45.032V20.328C336.638 18.152 338.43 16.424 340.67 16.424C342.782 16.424 344.574 18.152 344.574 20.328V45.032C344.574 47.208 342.782 49 340.67 49ZM365.734 48.872C356.902 48.872 349.67 41.704 349.67 32.808C349.67 23.976 356.902 16.744 365.734 16.744C374.566 16.744 381.798 23.976 381.862 32.872C381.798 41.704 374.566 48.872 365.734 48.872ZM365.734 24.616C361.19 24.616 357.542 28.264 357.542 32.808C357.542 37.352 361.19 41 365.734 41C370.278 41 373.926 37.352 373.926 32.808C373.926 28.264 370.278 24.616 365.734 24.616ZM401.605 17.064C398.725 17.064 396.101 17.896 393.797 19.368C393.285 17.832 391.877 16.744 390.213 16.744C388.101 16.744 386.373 18.472 386.373 20.584V45.032C386.373 47.144 388.101 48.872 390.213 48.872C392.325 48.872 394.053 47.144 394.053 45.032V34.152C394.053 29.736 396.613 24.744 401.605 24.744C405.637 24.744 408.965 28.392 408.965 32.936V45.032C408.965 47.144 410.629 48.872 412.805 48.872C414.917 48.872 416.581 47.144 416.581 45.032V32.936C416.581 24.168 409.861 17.064 401.605 17.064Z" fill="url('#gradient')"/>
<defs>
<linearGradient id="gradient" x1="1" y1="23.5" x2="419" y2="23.5" gradientUnits="userSpaceOnUse">
<stop stop-color="#5EEAD4"/>
<stop offset="1" stop-color="#24FE41"/>
</linearGradient>
</defs>
</svg>
